<?xml version="1.0" encoding="utf-8"?>
<svg xmlns="http://www.w3.org/2000/svg" xmlns:xlink="http://www.w3.org/1999/xlink" style="margin: auto; background: none; display: block; shape-rendering: auto;" width="243px" height="243px" viewBox="0 0 100 100" preserveAspectRatio="xMidYMid">
<g transform="translate(50 50)">
<g>
<animateTransform attributeName="transform" type="rotate" values="0;36" keyTimes="0;1" dur="1.2195121951219512s" repeatCount="indefinite"></animateTransform><path d="M29.491524206117255 -5.5 L37.491524206117255 -5.5 L37.491524206117255 5.5 L29.491524206117255 5.5 A30 30 0 0 1 27.091963160377592 12.885089526919998 L27.091963160377592 12.885089526919998 L33.564099115377175 17.587371545259785 L27.098461340159968 26.486558483384208 L20.62632538516039 21.78427646504442 A30 30 0 0 1 14.344193009333706 26.34851280264186 L14.344193009333706 26.34851280264186 L16.816328964333287 33.956964933003086 L6.354707285086599 37.35615187112751 L3.88257133008702 29.747699740766283 A30 30 0 0 1 -3.882571330087016 29.747699740766283 L-3.882571330087016 29.747699740766283 L-6.3547072850865955 37.35615187112751 L-16.816328964333287 33.956964933003086 L-14.34419300933371 26.34851280264186 A30 30 0 0 1 -20.62632538516038 21.784276465044428 L-20.62632538516038 21.784276465044428 L-27.09846134015996 26.486558483384215 L-33.56409911537717 17.58737154525978 L-27.091963160377592 12.885089526919996 A30 30 0 0 1 -29.491524206117255 5.500000000000009 L-29.491524206117255 5.500000000000009 L-37.491524206117255 5.50000000000001 L-37.491524206117255 -5.500000000000001 L-29.491524206117255 -5.500000000000002 A30 30 0 0 1 -27.091963160377595 -12.88508952691999 L-27.091963160377595 -12.88508952691999 L-33.564099115377175 -17.587371545259774 L-27.098461340159965 -26.486558483384204 L-20.626325385160385 -21.78427646504442 A30 30 0 0 1 -14.344193009333717 -26.348512802641856 L-14.344193009333717 -26.348512802641856 L-16.816328964333298 -33.956964933003086 L-6.354707285086597 -37.35615187112751 L-3.8825713300870164 -29.747699740766283 A30 30 0 0 1 3.8825713300870057 -29.747699740766286 L3.8825713300870057 -29.747699740766286 L6.354707285086583 -37.356151871127516 L16.816328964333284 -33.956964933003086 L14.344193009333706 -26.34851280264186 A30 30 0 0 1 20.626325385160378 -21.784276465044428 L20.626325385160378 -21.784276465044428 L27.098461340159957 -26.486558483384215 L33.56409911537717 -17.587371545259785 L27.091963160377592 -12.885089526919998 A30 30 0 0 1 29.491524206117255 -5.500000000000013 M0 -20A20 20 0 1 0 0 20 A20 20 0 1 0 0 -20" fill="#a5b5bc"></path></g></g>
<!-- [ldio] generated by https://loading.io/ --></svg>